<?xml version="1.0" encoding="UTF-8" standalone="no"?>
<!-- Created with Inkscape (http://www.inkscape.org/) -->

<svg
   width="194mm"
   height="196.5mm"
   viewBox="0 0 194 196.5"
   version="1.1"
   id="svg1"
   xml:space="preserve"
   inkscape:export-filename="bitmap.svg"
   inkscape:export-xdpi="96"
   inkscape:export-ydpi="96"
   xmlns:inkscape="http://www.inkscape.org/namespaces/inkscape"
   xmlns:sodipodi="http://sodipodi.sourceforge.net/DTD/sodipodi-0.dtd"
   xmlns="http://www.w3.org/2000/svg"
   xmlns:svg="http://www.w3.org/2000/svg"><sodipodi:namedview
     id="namedview1"
     pagecolor="#ffffff"
     bordercolor="#ff0000"
     borderopacity="0.25"
     inkscape:showpageshadow="2"
     inkscape:pageopacity="0.0"
     inkscape:pagecheckerboard="0"
     inkscape:deskcolor="#d1d1d1"
     inkscape:document-units="mm"><inkscape:page
       x="0"
       y="0"
       width="194"
       height="196.5"
       id="page2"
       margin="0"
       bleed="0" /></sodipodi:namedview><defs
     id="defs1" /><g
     inkscape:label="Layer 1"
     inkscape:groupmode="layer"
     id="layer1"><path
       style="fill:#aa0000;stroke-width:1.00133"
       d="m 83.970977,195.72834 c -15.73341,-4.51201 -24.932564,-15.59405 -24.82302,-29.90379 0.06543,-8.54677 3.184053,-15.8997 9.4206,-22.21138 1.378392,-1.395 2.443361,-2.53637 2.366597,-2.53637 -0.340828,0 -6.000153,3.3768 -7.92182,4.72679 -4.214807,2.96093 -8.421613,7.81909 -10.684522,12.33884 -2.787065,5.56666 -3.895477,12.43194 -2.86207,17.72708 0.1988,1.01865 0.328824,1.8867 0.288942,1.92901 -0.03989,0.0423 -0.816173,-0.7316 -1.72509,-1.71979 -1.828809,-1.98833 -4.076855,-6.24197 -4.934768,-9.33734 -0.735012,-2.65194 -0.672899,-8.69998 0.118013,-11.49124 1.241992,-4.38319 3.380217,-8.03842 6.517045,-11.14071 3.036911,-3.00348 4.803627,-4.05043 15.404742,-9.12883 8.851502,-4.24025 14.377204,-8.14751 17.758254,-12.55693 1.235538,-1.61134 2.801459,-4.28235 2.801459,-4.77848 0,-0.0912 -0.865497,0.63425 -1.923328,1.61216 -3.258006,3.01187 -6.988678,5.20222 -11.224498,6.59012 -3.543823,1.16116 -7.908181,1.75673 -9.585708,1.30809 -0.519037,-0.13883 -0.323418,-0.4012 1.805586,-2.42185 3.146486,-2.98636 5.4446,-6.09666 7.376116,-9.98297 1.310577,-2.63693 3.470941,-8.67464 3.470941,-9.70045 0,-0.15236 -0.670254,0.65822 -1.489454,1.8013 -5.055636,7.05444 -9.008165,10.40344 -14.50141,12.2871 -3.542062,1.21459 -9.121818,1.60852 -12.792735,0.90317 -3.470795,-0.6669 -8.143994,-2.31843 -9.511161,-3.36128 -0.447173,-0.34111 -0.29548,-0.42715 1.684903,-0.95579 7.944351,-2.12065 15.185043,-6.8917 21.324483,-14.05118 1.132395,-1.32054 2.009635,-2.400987 1.949421,-2.400987 -0.06021,0 -1.113298,0.656228 -2.340187,1.458287 -5.14286,3.36207 -12.822096,6.52795 -18.015261,7.42706 -6.493938,1.12434 -13.979236,-0.42536 -19.41496,-4.01953 -3.273215,-2.16427 -9.288501,-8.605817 -8.640174,-9.252417 0.06161,-0.0615 0.698879,0.0162 1.416144,0.1726 2.181329,0.4756 13.073265,0.532899 16.425454,0.08639 5.629492,-0.7498 12.466838,-2.80461 17.157249,-5.15621 2.114937,-1.06036 3.112293,-1.8925 1.426016,-1.18979 -1.367591,0.5699 -6.503872,1.89988 -9.165589,2.37332 -6.942431,1.23487 -14.479593,0.54507 -21.658941,-1.98221 C 10.342597,85.977722 3.9436544,78.413673 0.96694382,67.320162 0.60634904,65.976313 0.39413344,64.876793 0.49535579,64.876793 c 0.10122235,0 1.01779811,0.49024 2.03683671,1.08942 3.2226486,1.89488 8.9054425,4.661289 12.0663315,5.87396 7.572297,2.90509 13.076188,3.91151 21.886147,4.00204 3.06406,0.0315 6.406672,-0.013 7.428025,-0.0989 l 1.857007,-0.156111 -2.254937,-0.2208 C 33.28845,74.365063 25.366085,71.906263 18.112648,67.482573 14.165541,65.075333 9.9404766,61.280463 7.2984063,57.769443 2.4993614,51.39203 0.04338857,42.819271 0.80401488,35.100273 0.97549951,33.360003 1.1600367,31.891429 1.214096,31.836776 c 0.054063,-0.05465 0.431489,0.302483 0.8387316,0.793635 3.5897348,4.329379 10.6985304,11.360779 14.8656354,14.703788 4.884664,3.918661 11.973803,8.285304 17.045984,10.499684 1.941406,0.84756 5.354492,2.05537 5.473311,1.93687 0.0429,-0.0428 -1.559022,-1.31591 -3.559834,-2.82916 C 25.036526,48.742086 19.872135,43.90253 16.387743,38.677348 12.176631,32.362384 10.398236,26.397456 10.696795,19.589309 c 0.07872,-1.794953 0.218779,-3.680269 0.311254,-4.189592 0.724133,-3.988285 2.600553,-9.188593 4.422758,-12.25723 0.589899,-0.9934029 1.118743,-1.7601109 1.175209,-1.7037939 0.05647,0.05632 0.339535,1.2858199 0.629042,2.73223 2.145567,10.7195149 6.904202,19.2974579 15.763984,28.4162519 3.239923,3.334642 8.847264,8.381767 12.667175,11.40163 2.346348,1.854925 9.796106,8.754865 11.112881,10.292714 3.669822,4.285944 5.55185,8.301204 7.037618,15.014584 1.024333,4.6284 1.848321,6.75123 3.793928,9.77424 2.874725,4.46665 9.18418,9.25869 14.767423,11.21589 0.730193,0.25596 1.566381,0.56068 1.858196,0.67715 0.291816,0.11647 -0.581437,-0.8447 -1.940563,-2.13592 -4.366277,-4.14815 -7.503503,-8.91334 -9.202906,-13.97847 -1.431106,-4.26546 -1.823992,-6.81492 -1.822192,-11.82428 0.0038,-10.705603 1.429031,-13.895542 10.226088,-22.888752 l 2.849184,-2.912712 -3.768818,-0.01256 c -4.359171,-0.01453 -6.01681,-0.369634 -9.398117,-2.013287 -3.448919,-1.67652 -6.147988,-4.955687 -6.955928,-8.450937 -0.296915,-1.284492 -0.376327,-4.202996 -0.114363,-4.202996 0.09174,0 0.625421,0.413227 1.185942,0.918282 3.264715,2.941653 9.901097,4.348773 16.952023,3.594357 4.836921,-0.517527 5.138953,-0.553072 6.764805,-0.796115 3.50985,-0.524674 7.882712,-0.588571 10.744118,-0.156996 7.500884,1.131332 14.627844,5.107111 15.521624,8.658745 0.1435,0.570268 0.4369,0.720926 2.20388,1.131691 7.88038,1.831923 11.73227,5.074807 13.23323,11.140982 0.23305,0.941905 0.37182,1.764333 0.30837,1.82762 -0.0635,0.06329 -0.90611,-0.171195 -1.87257,-0.521069 -4.44564,-1.609401 -11.57941,-1.925079 -15.73227,-0.696171 -8.09955,2.396802 -12.59583,8.008128 -11.58954,14.463658 0.3832,2.45826 1.70896,6.03581 3.19439,8.61997 1.0399,1.80909 1.95232,3.00187 7.49907,9.80325 5.93693,7.27982 7.50086,11.36249 7.4451,19.435601 -0.0747,10.821096 -3.29365,18.189956 -11.82665,27.073936 -9.195995,9.57425 -10.893314,11.92847 -12.003538,16.64925 -1.191619,5.06691 -0.01644,9.3091 4.315178,15.57644 1.9369,2.80249 1.8757,2.89576 -1.265232,1.92785 -5.042729,-1.55398 -8.784302,-5.53428 -10.330732,-10.98983 -0.217126,-0.76598 -0.374994,-2.51474 -0.374994,-4.15395 0,-1.55707 -0.06948,-2.7477 -0.154399,-2.64583 -0.423651,0.50821 -1.349638,3.26411 -1.736417,5.16788 -1.180963,5.81283 0.414284,10.56195 4.76896,14.19736 9.679864,8.08103 26.282834,8.00495 39.002984,-0.17873 2.87763,-1.85136 5.18434,-3.66069 7.26296,-5.69685 1.05769,-1.03608 1.97394,-1.83306 2.0361,-1.77106 0.0622,0.062 -0.11133,1.22818 -0.38555,2.59151 -1.35481,6.73562 -4.07114,11.86749 -8.42977,15.92609 -3.95794,3.68549 -8.79515,6.12969 -13.88733,7.01716 -5.53118,0.96398 -14.85348,-0.2648 -19.344341,-2.5498 -1.494121,-0.76022 -1.285819,-0.29083 0.540042,1.21693 5.768399,4.76343 13.100649,6.98762 21.895869,6.64197 2.18861,-0.086 4.33744,-0.22032 4.77516,-0.29846 0.43772,-0.0781 1.54734,-0.27569 2.46583,-0.43899 2.69826,-0.47975 2.54183,-0.12042 -0.82857,1.90315 -8.38766,5.03591 -15.80443,6.98478 -23.15459,6.08421 -18.110553,-2.21896 -29.784602,-16.04848 -29.823702,-35.33029 -0.0091,-4.50119 -0.154674,-4.55593 -1.237891,-0.46557 -0.591073,2.23198 -0.693989,3.23888 -0.776791,7.59994 -0.08542,4.49877 -0.02802,5.36076 0.546138,8.20209 1.920741,9.50508 6.210626,16.32039 13.531515,21.49739 2.233886,1.57971 2.298378,1.6528 1.442329,1.63478 -0.492865,-0.0104 -1.85115,-0.29275 -3.018411,-0.62751 z M 108.16046,39.294494 c 0.7818,-0.245789 1.38139,-0.566789 1.33241,-0.713333 -0.22081,-0.660685 -3.29976,-1.986473 -5.21907,-2.247323 -1.08969,-0.148098 -2.02368,-0.226956 -2.07554,-0.175241 -0.13042,0.130082 0.63025,1.484405 1.19956,2.135715 1.33022,1.521821 2.39329,1.745073 4.76264,1.000182 z m -0.50089,116.665126 c -2.29472,-2.43957 -3.68245,-5.69921 -3.85805,-9.06217 -0.28919,-5.53847 1.61816,-9.3373 9.09981,-18.12377 3.6545,-4.29187 4.27992,-5.10988 5.64171,-7.37917 1.07059,-1.78405 1.09956,-1.80815 1.35797,-1.13029 1.85083,4.85517 0.32795,11.67433 -3.9389,17.63758 -5.18922,7.25236 -6.00777,8.71831 -6.94363,12.43542 -0.44158,1.75394 -0.53249,2.7003 -0.41301,4.29948 0.0842,1.12779 0.0599,2.05052 -0.0541,2.05052 -0.11405,0 -0.51534,-0.32742 -0.89176,-0.7276 z m 30.74255,-32.09547 c -5.08327,-0.58927 -10.11484,-3.14582 -14.47186,-7.35319 -1.56981,-1.51589 -1.67778,-1.69398 -1.5096,-2.49018 0.88443,-4.18736 1.47537,-9.45305 1.47574,-13.14997 4.6e-4,-4.685427 -1.58908,-13.628527 -3.03634,-17.083137 -0.53542,-1.27803 -0.52051,-1.97611 0.1267,-5.93229 0.91264,-5.57868 2.53841,-9.90201 4.9037,-13.0402 1.39516,-1.85105 8.11482,-8.37564 12.59692,-12.231253 2.92636,-2.517313 3.76781,-3.292883 9.64891,-8.893448 5.04399,-4.803387 10.87427,-11.797886 14.64978,-17.57514 4.95179,-7.577173 7.82248,-14.845181 9.43147,-23.878646 0.18792,-1.055026 0.4053,-1.91801593 0.48306,-1.91775592 0.21392,7.16e-4 1.43213,2.02249202 2.47077,4.10056902 1.56429,3.12975 2.94058,7.4253339 3.77234,11.7739579 0.36407,1.903452 0.44943,7.441159 0.15954,10.350452 -0.86406,8.671502 -4.33821,15.149254 -12.479,23.267751 -4.68447,4.671663 -8.02068,7.350243 -15.07444,12.103013 -2.95625,1.99189 -5.25238,3.66238 -5.10253,3.712199 0.46194,0.153571 11.83531,-5.616289 16.19095,-8.213879 4.99123,-2.97664 9.04897,-5.796003 12.74333,-8.854205 3.78433,-3.132672 11.20686,-10.606065 14.67002,-14.770541 1.57319,-1.89177 2.95866,-3.475315 3.07881,-3.518988 0.32918,-0.119654 0.62649,5.235505 0.42763,7.702649 -0.50546,6.271168 -1.74749,11.756652 -3.51583,15.527802 -5.67144,12.094873 -17.56129,21.203113 -32.58681,24.963153 -3.50667,0.87752 -8.19671,1.68684 -11.10584,1.91642 -3.62365,0.28598 -2.19503,0.63605 3.34217,0.81896 14.39411,0.47548 25.77304,-2.67198 40.26128,-11.13644 1.81376,-1.05966 2.54327,-1.36746 2.60246,-1.09805 0.13577,0.61803 -1.49993,5.93847 -2.57488,8.37529 -4.77285,10.81966 -15.15638,17.83068 -28.93687,19.53835 -3.14584,0.38983 -6.23134,0.34724 -9.52323,-0.13143 -3.50667,-0.5099 -8.41693,-1.76281 -10.32747,-2.63516 -3.36548,-1.53668 1.16142,1.67839 5.12034,3.63653 4.51729,2.234336 8.93661,3.586907 14.04004,4.297027 3.65889,0.50913 11.82632,0.5264 14.14666,0.0299 0.91192,-0.19513 1.65804,-0.2677 1.65804,-0.16127 0,0.51197 -3.49404,3.90389 -5.44844,5.28919 -7.70585,5.462 -17.90065,7.03279 -26.25331,4.04501 -3.5606,-1.27364 -8.06753,-3.81114 -10.99462,-6.19021 -0.50256,-0.40845 -0.96424,-0.69227 -1.02596,-0.6307 -0.14435,0.14395 2.16465,4.41442 3.20312,5.92416 1.23957,1.80211 4.13331,4.74155 5.89261,5.98569 2.63859,1.86594 5.47159,3.12603 9.53974,4.24319 l 1.57445,0.43236 -0.77859,0.48919 c -1.30441,0.81956 -4.60493,1.78977 -7.57744,2.22743 -3.03954,0.44754 -3.17216,0.45061 -5.88752,0.13584 z"
       id="path1" /></g>
</svg>
